# xmcd
#
# Track frame offsets: 
#        150
#        22477
#        46652
#        78777
#        101950
#        132219
#        168257
#        198544
#        218327
#        243583
#        268884
#        292142
#
# Disc length: 4259 seconds
#
# Revision: 0
# Processed by: cddbd v1.5.2PL0 Copyright (c) Steve Scherf et al.
# Submitted via: ExactAudioCopy v1.0b3
#
DISCID=b110a10c
DTITLE=Various Artist - Laser Trance Vol. 6
DYEAR=1900
DGENRE=
TTITLE0=DJ The Crow - I've Got No Time (Xtd Mix)
TTITLE1=Real Stuff - Club It (Normal Mix)
TTITLE2=Groove Club - Peace and Love (United Love Mix)
TTITLE3=Sandy - It's Not Over (Xtd Version)
TTITLE4=The Pulze - I Can't Resist (Xtd Mix)
TTITLE5=Lighthouse - The Move (Ultra Dance)
TTITLE6=DND Feat. Pacman - 2B Or Not 2B
TTITLE7=Clubbeat - Gogo Dancer (Rmx Edit)
TTITLE8=Deen - Flying High (A-Trax Club Rmx)
TTITLE9=PVP - Sunday Night (Maxi Version)
TTITLE10=Penny Lane - Sissy's Delight (Club Mix)
TTITLE11=M.U.T.E. - It's Okay (Original Version)
EXTD=
EXTT0=
EXTT1=
EXTT2=
EXTT3=
EXTT4=
EXTT5=
EXTT6=
EXTT7=
EXTT8=
EXTT9=
EXTT10=
EXTT11=
PLAYORDER=
